<svg xmlns="http://www.w3.org/2000/svg" width="1200" height="630" viewBox="0 0 1200 630">
  <rect width="1200" height="630" fill="#f7f4ec"/>
  <rect x="58" y="58" width="1084" height="514" fill="#fff" stroke="#1f2a2e" stroke-width="3"/>
  <text x="100" y="180" fill="#0f6f68" font-family="Arial, sans-serif" font-size="34" font-weight="700">LINK HUB</text>
  <text x="100" y="305" fill="#171717" font-family="Georgia, serif" font-size="86" font-weight="700">Verified link directory</text>
  <text x="104" y="386" fill="#66645f" font-family="Arial, sans-serif" font-size="32">Custom domains, sitemaps, and crawler-friendly references.</text>
  <path d="M880 326c-54 0-98-44-98-98s44-98 98-98h86v56h-86c-23 0-42 19-42 42s19 42 42 42h86v56h-86Z" fill="#0f6f68"/>
  <path d="M966 500h86c23 0 42-19 42-42s-19-42-42-42h-86v-56h86c54 0 98 44 98 98s-44 98-98 98h-86v-56Z" fill="#b84a2f"/>
  <path d="M887 277h150v56H887z" fill="#1f2a2e"/>
</svg>
